<svg xmlns="http://www.w3.org/2000/svg" viewBox="0 0 40 40"><path fill="#b0c1d4" d="M0.935 13.667L20 1.592 39.065 13.667 20 25.741z"/><path fill="#66798f" d="M20,2.184l18.131,11.483L20,25.15L1.869,13.667L20,2.184 M20,1L0,13.667l20,12.667l20-12.667L20,1 L20,1z"/><path fill="#deb974" d="M29.1,27.5c-1.875,0-3.4-1.57-3.4-3.5s1.525-3.5,3.4-3.5c2.447,0,3.4,0.607,3.4,2.167 C32.5,24.339,31.79,27.5,29.1,27.5z M10.9,27.5c-2.689,0-3.4-3.161-3.4-4.833c0-1.56,0.953-2.167,3.4-2.167 c1.875,0,3.4,1.57,3.4,3.5S12.774,27.5,10.9,27.5z"/><path fill="#967a44" d="M29.1,21c2.678,0,2.9,0.788,2.9,1.667C32,24.165,31.394,27,29.1,27c-1.599,0-2.9-1.346-2.9-3 S27.501,21,29.1,21 M10.9,21c1.599,0,2.9,1.346,2.9,3s-1.301,3-2.9,3C8.606,27,8,24.165,8,22.667C8,21.788,8.222,21,10.9,21 M29.1,20c-2.154,0-3.9,1.791-3.9,4c0,2.209,1.746,4,3.9,4c2.903,0,3.9-3.124,3.9-5.333C33,20.458,31.254,20,29.1,20L29.1,20z M10.9,20C8.746,20,7,20.458,7,22.667C7,24.876,8.005,28,10.9,28c2.154,0,3.9-1.791,3.9-4C14.8,21.791,13.054,20,10.9,20L10.9,20z"/><path fill="#f5ce85" d="M20,38.5c-1.268,0-2.445-0.526-3.316-1.483L16.6,36.925l-0.118-0.042 C12.306,35.396,9.5,31.424,9.5,27V16.5h21V27c0,4.424-2.806,8.396-6.982,9.883L23.4,36.925l-0.084,0.092 C22.445,37.974,21.268,38.5,20,38.5z"/><path fill="#967a44" d="M30,17v10c0,4.213-2.672,7.995-6.65,9.412l-0.236,0.084l-0.168,0.185 C22.171,37.531,21.125,38,20,38s-2.171-0.469-2.946-1.319l-0.168-0.185l-0.236-0.084C12.672,34.995,10,31.213,10,27V17H30 M31,16 H9v11c0,4.78,3.055,8.837,7.315,10.354C17.229,38.358,18.534,39,20,39s2.771-0.642,3.685-1.646C27.945,35.837,31,31.78,31,27V16 L31,16z"/><path fill="#a6714e" d="M30.5,25.5v-2.709c0-2.194-6.629-5.031-7.344-5.266l-0.446-0.146l-0.174,0.436 c-0.629,1.574-3.524,1.969-6.323,2.351c-3.3,0.45-6.712,0.916-6.712,3.551V25.5H9.44c-0.197-1.55-0.85-6.845-0.932-9.506 l22.977,0.089c-0.104,2.171-0.744,7.797-0.931,9.417H30.5z"/><path fill="#7a4f34" d="M9.029,16.496l21.926,0.085c-0.083,1.238-0.271,3.142-0.459,4.905 c-1.698-2.319-7.12-4.415-7.185-4.436l-0.892-0.293l-0.348,0.872c-0.521,1.304-3.393,1.695-5.927,2.041 c-2.597,0.354-5.463,0.745-6.618,2.335C9.319,20.158,9.106,18.022,9.029,16.496 M8,15.492C8,18.381,9,26,9,26h1 c0,0,0-0.896,0-2.284c0-4.234,11.467-1.878,13-5.716c1.439,0.473,7,3.192,7,4.791C30,24.317,30,26,30,26h1c0,0,1-8.494,1-10.415 L8,15.492L8,15.492z"/><path fill="#36404d" d="M25.5 24A1.5 1.5 0 1 0 25.5 27 1.5 1.5 0 1 0 25.5 24zM14.5 24A1.5 1.5 0 1 0 14.5 27 1.5 1.5 0 1 0 14.5 24z"/><g><path fill="#b0c1d4" d="M31.5,20.516c-1.603-0.756-5.673-2.349-11.5-2.349s-9.897,1.593-11.5,2.349v-5.559 C9.473,14.428,13.464,12.5,20,12.5s10.527,1.928,11.5,2.457V20.516z"/><path fill="#66798f" d="M20,13c5.949,0,9.74,1.621,11,2.259v4.489c-1.977-0.832-5.812-2.081-11-2.081s-9.023,1.25-11,2.081 v-4.492C10.253,14.617,14.015,13,20,13 M20,12c-7.797,0-12,2.667-12,2.667v6.667c0,0,4.574-2.667,12-2.667s12,2.667,12,2.667 v-6.667C32,14.667,27.797,12,20,12L20,12z"/></g><path fill="#a16a4a" d="M4 33.7L3 33.7 3 11.867 4 11.26z"/><g><path fill="#ffc49c" d="M3.5,37.29c-0.906-1.701-2-4.011-2-4.79c0-1.103,0.897-2,2-2s2,0.897,2,2 C5.5,33.279,4.406,35.589,3.5,37.29z"/><path fill="#a16a4a" d="M3.5,31C4.327,31,5,31.673,5,32.5c0,0.514-0.681,2.096-1.5,3.709C2.681,34.596,2,33.014,2,32.5 C2,31.673,2.673,31,3.5,31 M3.5,30C2.119,30,1,31.119,1,32.5s2.5,5.833,2.5,5.833S6,33.881,6,32.5S4.881,30,3.5,30L3.5,30z"/></g></svg>