<svg xmlns="http://www.w3.org/2000/svg" viewBox="0 0 48 48"><path fill="#2196f3" d="M44,24c0,11.135-9.07,20-20,20C13.074,44,4,35.135,4,24S12.865,4,24,4S44,12.865,44,24"/><path fill="#247dd4" d="M23.182 32.598c-1.229-.411-2.454-.411-3.477-1.434-.206-.407-.206-.818-.407-1.225C18.875 29.25 18 29 17.125 29H13c-.616-.205-1-1-1-1.5 0-.205-.218-.5-.625-.5-.375 0 0 0-.375 0-.625 0-1-.5-1-1s.375-1 1-1c.875 0 .887 0 1.5 0 .205 0 .25-.25.745-.297C13.875 24.75 14 25.008 14 25.625V26.5c0 0 0 .5.5.5s.5-.5.5-.5 0-1.375 0-2.625C15.122 22.652 16 21 18.25 21 20 21 21 19.375 21 17.625 21 16.25 20.375 15 18.75 15 18 15 16 18 15 18c-.75 0-1-1.75-1-2.625C14 14.125 16 12 17 12s2.387 1 3 1c.205 0 .548-.045.75-.25.205-.206.25-.295.25-.5 0-.613-2.387-1.798-3-2-.513-.155-1.113-.249-1.75-.25-1.896-.002-4.117.663-5.342 1.737-.136.119-.287.241-.446.364-2.758 3.142-4.437 7.259-4.458 11.813.085.29.212.588.407.911.613 1.229 1.838 2.454 3.067 3.272.818.613 2.079.88 2.897 1.903C12.988 30.822 13 31.476 13 32.5c0 1.225 1.008 2.336 1.386 3.37.222.607.512 1.406.616 2.047.032.199.202 1.431.202 1.636.019.059.039.11.059.167 1.048.584 2.156 1.07 3.315 1.438.101-.05 1.137-.934 1.422-1.283.55-.673.933-1.551 1.546-1.958.407-.205.818-.411 1.225-.822.411-.407.616-1.225.818-1.838C23.794 34.846 24 34.25 24 33.5 24.001 33.089 23.589 32.803 23.182 32.598zM23.87 6c-.238.002-.469.024-.705.035-.491.083-.981.301-1.133.74-.204.977.609.781 1.421.977 0 0 .204 1.562.204 1.758.204.977-.408 1.562-.408 2.536 0 .588 0 1.565.408 1.954h.204c.204 0 .404-.196.813-.388.609-.392 1.221-.977 1.83-1.369.609-.388 1.217-.977 1.625-1.366.609-.392 1.017-1.173 1.221-1.758.2-.392.813-1.173.609-1.758-.204-.392-1.221-.584-1.625-.781-1.177-.283-2.247-.458-3.362-.536-.142-.007-.284-.017-.427-.021C24.323 6.011 24.098 6.003 23.87 6zM42 24c0-5.692-2.579-10.721-6.64-14.007C34.75 10.5 34.576 12 34.125 12 32.875 12 32 14.295 32 14.5c0 .5 2 .625 2 1.125 0 .75-2.501 2.595-3.5 3.25-.292.192-.625.375-.625 1.25s0 .875 0 .875H32l.001 2L26 29c.962.8 3 .999 4.791.999C31.625 30 31.734 30.255 32 30.625c.375.75.384 2.178.59 2.794.202.818.52 1.588.818 2.454.34.986.839 2.882.85 2.895C38.914 35.53 42 30.155 42 24z"/><path fill="#d4dcdf" d="M4.4,28c0,0-0.4,1.094-0.4,3c0,3,2,7,8,7c8,0,12-7,12-7s-3,3-11,3C5.25,34,4.4,28,4.4,28z"/><path fill="#bcc8ce" d="M35.743 21.379L33.621 19.257 24 18 23 19 30.086 22.793 32.207 24.914 36 32 37 31zM22 27L23 26 27 27 28 28 29 32 28 33 25.843 29.864 25.136 29.157z"/><path fill="#eef1f2" d="M38.55,16.451c-0.601-0.601-1.574-0.601-2.175,0c-0.601,0.601-3.988,3.988-6.888,6.888 s-4.35,5.8-4.35,5.8l0.725,0.725c0,0,2.9-1.45,5.8-4.35s6.593-6.593,6.888-6.888C39.15,18.025,39.15,17.051,38.55,16.451z"/></svg>