<svg xmlns="http://www.w3.org/2000/svg" viewBox="0 0 100 100"><path fill="#b07454" stroke="#b07454" stroke-miterlimit="10" d="M82,81H18c-2.761,0-5-2.239-5-5V27c0-2.761,2.239-5,5-5h64 c2.761,0,5,2.239,5,5v49C87,78.761,84.761,81,82,81z"/><path fill="none" stroke="#1f212b" stroke-linejoin="round" stroke-miterlimit="10" stroke-width="2" d="M82,81H18 c-2.761,0-5-2.239-5-5V27c0-2.761,2.239-5,5-5h64c2.761,0,5,2.239,5,5v49C87,78.761,84.761,81,82,81z"/><path fill="none" stroke="#1f212b" stroke-linejoin="round" stroke-miterlimit="10" stroke-width="2" d="M13,27v15 c0,4.418,3.582,8,8,8h58c4.418,0,8-3.582,8-8V27"/><path fill="#fef6aa" d="M72.5 55.5h-5c-.552 0-1-.448-1-1v-9c0-.552.448-1 1-1h5c.552 0 1 .448 1 1v9C73.5 55.052 73.052 55.5 72.5 55.5zM32.5 55.5h-5c-.552 0-1-.448-1-1v-9c0-.552.448-1 1-1h5c.552 0 1 .448 1 1v9C33.5 55.052 33.052 55.5 32.5 55.5z"/><path fill="none" stroke="#1f212b" stroke-linecap="round" stroke-linejoin="round" stroke-miterlimit="10" d="M32.5 55.5h-5c-.552 0-1-.448-1-1v-9c0-.552.448-1 1-1h5c.552 0 1 .448 1 1v9C33.5 55.052 33.052 55.5 32.5 55.5zM72.5 55.5h-5c-.552 0-1-.448-1-1v-9c0-.552.448-1 1-1h5c.552 0 1 .448 1 1v9C73.5 55.052 73.052 55.5 72.5 55.5z"/><path fill="none" stroke="#1f212b" stroke-linecap="round" stroke-linejoin="round" stroke-miterlimit="10" stroke-width="2" d="M39,22 v-3c0-3.314,2.686-6,6-6h10c3.314,0,6,2.686,6,6v3"/><path fill="none" stroke="#1f212b" stroke-linecap="round" stroke-linejoin="round" stroke-miterlimit="10" d="M67.5 27.5h-49M18.5 55.5v16c0 2.209 1.791 4 4 4h55c2.209 0 4-1.791 4-4v-8M71.5 27.5L76.5 27.5M78.5 27.5L81.5 27.5M81.5 58.5L81.5 54.5"/></svg>