<?xml version="1.0" encoding="utf-8"?>
<svg xmlns="http://www.w3.org/2000/svg" viewBox="0 0 80 80" fill="#ffffff"><path d="M 24.5 4 C 23.06 4 21.79 5.38 22 7 L 22 12.359375 L 22 14 C 19.77 15.39 17.530781 16.770156 15.300781 18.160156 C 14.200781 18.830156 13.1 19.519219 12 20.199219 L 12 22 C 12.15 21.96 12.289453 21.909141 12.439453 21.869141 C 13.489453 21.549141 14.530078 21.239687 15.580078 20.929688 C 17.720078 20.279688 19.86 19.64 22 19 L 22 26 L 18 30 L 18 32 C 19.87066 31.198289 21.734906 30.389699 23.603516 29.585938 C 23.686554 37.184185 26.753381 46.120868 32.169922 54.380859 C 35.949922 60.150859 40.519844 65.02 45.339844 68.5 C 46.099844 69.06 46.860859 69.570781 47.630859 70.050781 C 48.300859 70.460781 48.970625 70.850938 49.640625 71.210938 C 49.780625 71.280937 49.920547 71.359687 50.060547 71.429688 C 50.940547 71.879687 51.819688 72.279141 52.679688 72.619141 C 55.209688 73.629141 57.619609 74.130859 59.849609 74.130859 C 62.339609 74.130859 64.599531 73.500234 66.519531 72.240234 C 71.299531 69.100234 73.280781 62.450078 72.050781 54.080078 C 71.540781 55.220078 70.979141 56.320625 70.369141 57.390625 C 70.689141 63.510625 68.959922 68.240313 65.419922 70.570312 C 63.829922 71.610313 61.940078 72.130859 59.830078 72.130859 C 58.440078 72.130859 56.939141 71.899453 55.369141 71.439453 C 54.489141 71.189453 53.599688 70.860938 52.679688 70.460938 C 51.989687 70.170937 51.290078 69.829219 50.580078 69.449219 C 50.470078 69.389219 50.350234 69.329766 50.240234 69.259766 C 49.480234 68.839766 48.720937 68.380859 47.960938 67.880859 C 42.810938 64.510859 37.879609 59.419297 33.849609 53.279297 C 28.734832 45.491097 25.72723 36.81061 25.609375 29.677734 C 27.406606 30.45133 29.200421 31.228752 31 32 L 31 30 L 27 26 L 27 19 C 30.33 20 33.67 21 37 22 L 37 20.199219 C 33.67 18.129219 30.33 16.07 27 14 L 27 11.859375 L 27 9.6699219 L 27 7 C 27.21 5.38 25.94 4 24.5 4 z M 40 7 C 36.14 7 32.44 7.660625 29 8.890625 L 29 11.019531 C 30.30135 10.521061 31.645272 10.111632 33.023438 9.7929688 A 1 1 0 0 0 34 11 A 1 1 0 0 0 34.826172 9.4394531 C 36.510376 9.1551925 38.237106 9 40 9 A 1 1 0 0 0 40 11 A 1 1 0 0 0 40.054688 9.0019531 C 46.939357 9.0139883 53.305549 11.283041 58.451172 15.107422 A 1 1 0 0 0 58 15 A 1 1 0 0 0 58 17 A 1 1 0 0 0 58.746094 15.333984 C 60.975861 17.032857 62.969181 19.024072 64.667969 21.253906 A 1 1 0 0 0 64 21 A 1 1 0 0 0 64 23 A 1 1 0 0 0 64.890625 21.546875 C 65.497744 22.363592 66.063887 23.212466 66.589844 24.087891 A 1 1 0 0 0 67 26 A 1 1 0 0 0 67.556641 25.830078 C 68.719448 28.081661 69.612699 30.492872 70.197266 33.021484 A 1 1 0 0 0 70 33 A 1 1 0 0 0 70 35 A 1 1 0 0 0 70.560547 34.828125 C 70.842313 36.497353 70.995646 38.209599 70.998047 39.957031 A 1 1 0 0 0 70 39 A 1 1 0 0 0 70 41 A 1 1 0 0 0 70.996094 40.078125 C 70.991753 41.812907 70.832336 43.510367 70.552734 45.167969 A 1 1 0 0 0 70 45 A 1 1 0 0 0 70 47 A 1 1 0 0 0 70.203125 46.978516 C 69.618823 49.508236 68.709953 51.911558 67.546875 54.164062 A 1 1 0 0 0 67 54 A 1 1 0 0 0 66.576172 55.90625 C 66.058802 56.767258 65.508107 57.603952 64.912109 58.408203 A 1 1 0 0 0 64 57 A 1 1 0 0 0 64 59 A 1 1 0 0 0 64.681641 58.730469 C 62.986037 60.958792 60.990275 62.945605 58.763672 64.644531 A 1 1 0 0 0 58 63 A 1 1 0 0 0 58 65 A 1 1 0 0 0 58.457031 64.888672 C 56.671878 66.215602 54.739963 67.355712 52.689453 68.279297 C 52.959453 68.399297 53.220469 68.520859 53.480469 68.630859 C 54.080469 68.890859 54.639688 69.099297 55.179688 69.279297 C 60.749688 66.389297 65.410781 61.949297 68.550781 56.529297 C 68.800781 56.079297 69.049063 55.629688 69.289062 55.179688 C 69.479062 54.809688 69.669609 54.430781 69.849609 54.050781 C 69.899609 53.970781 69.940703 53.879062 69.970703 53.789062 C 70.420703 52.829062 70.819922 51.840078 71.169922 50.830078 C 72.359922 47.440078 73 43.79 73 40 C 73 21.8 58.2 7 40 7 z M 31 12 A 1 1 0 0 0 31 14 A 1 1 0 0 0 31 12 z M 37 12 A 1 1 0 0 0 37 14 A 1 1 0 0 0 37 12 z M 43 12 A 1 1 0 0 0 43 14 A 1 1 0 0 0 43 12 z M 40 15 A 1 1 0 0 0 40 17 A 1 1 0 0 0 40 15 z M 43 18 A 1 1 0 0 0 43 20 A 1 1 0 0 0 43 18 z M 55 18 A 1 1 0 0 0 55 20 A 1 1 0 0 0 55 18 z M 61 18 A 1 1 0 0 0 61 20 A 1 1 0 0 0 61 18 z M 52 21 A 1 1 0 0 0 52 23 A 1 1 0 0 0 52 21 z M 58 21 A 1 1 0 0 0 58 23 A 1 1 0 0 0 58 21 z M 13.720703 23.570312 L 12.570312 23.919922 L 10.919922 24.410156 C 8.4199219 29.060156 7 34.36 7 40 C 7 58.2 21.8 73 40 73 C 42.51 73 44.960781 72.719453 47.300781 72.189453 C 47.060781 72.049453 46.820312 71.9 46.570312 71.75 C 45.970312 71.37 45.389609 70.999141 44.849609 70.619141 C 43.269609 70.869141 41.65 71 40 71 C 38.237594 71 36.511126 70.844638 34.828125 70.560547 A 1 1 0 0 0 34 69 A 1 1 0 0 0 33.019531 70.197266 C 19.293789 67.023242 9.022108 54.713114 9.0019531 40.042969 A 1 1 0 0 0 10 41 A 1 1 0 0 0 10 39 A 1 1 0 0 0 9.0019531 39.927734 C 9.0059728 38.190328 9.1606666 36.488668 9.4414062 34.828125 A 1 1 0 0 0 10 35 A 1 1 0 0 0 10 33 A 1 1 0 0 0 9.8027344 33.019531 C 10.387761 30.492947 11.274705 28.080159 12.439453 25.830078 C 12.739453 25.240078 13.060156 24.659844 13.410156 24.089844 C 13.510156 23.909844 13.620703 23.740312 13.720703 23.570312 z M 19 24 A 1 1 0 0 0 19 26 A 1 1 0 0 0 19 24 z M 31 24 A 1 1 0 0 0 31 26 A 1 1 0 0 0 31 24 z M 49 24 A 1 1 0 0 0 49 26 A 1 1 0 0 0 49 24 z M 55 24 A 1 1 0 0 0 55 26 A 1 1 0 0 0 55 24 z M 61 24 A 1 1 0 0 0 61 26 A 1 1 0 0 0 61 24 z M 16 27 A 1 1 0 0 0 16 29 A 1 1 0 0 0 16 27 z M 52 27 A 1 1 0 0 0 52 29 A 1 1 0 0 0 52 27 z M 58 27 A 1 1 0 0 0 58 29 A 1 1 0 0 0 58 27 z M 64 27 A 1 1 0 0 0 64 29 A 1 1 0 0 0 64 27 z M 13 30 A 1 1 0 0 0 13 32 A 1 1 0 0 0 13 30 z M 49 30 A 1 1 0 0 0 49 32 A 1 1 0 0 0 49 30 z M 55 30 A 1 1 0 0 0 55 32 A 1 1 0 0 0 55 30 z M 61 30 A 1 1 0 0 0 61 32 A 1 1 0 0 0 61 30 z M 67 30 A 1 1 0 0 0 67 32 A 1 1 0 0 0 67 30 z M 16 33 A 1 1 0 0 0 16 35 A 1 1 0 0 0 16 33 z M 46 33 A 1 1 0 0 0 46 35 A 1 1 0 0 0 46 33 z M 52 33 A 1 1 0 0 0 52 35 A 1 1 0 0 0 52 33 z M 58 33 A 1 1 0 0 0 58 35 A 1 1 0 0 0 58 33 z M 64 33 A 1 1 0 0 0 64 35 A 1 1 0 0 0 64 33 z M 13 36 A 1 1 0 0 0 13 38 A 1 1 0 0 0 13 36 z M 49 36 A 1 1 0 0 0 49 38 A 1 1 0 0 0 49 36 z M 55 36 A 1 1 0 0 0 55 38 A 1 1 0 0 0 55 36 z M 61 36 A 1 1 0 0 0 61 38 A 1 1 0 0 0 61 36 z M 67 36 A 1 1 0 0 0 67 38 A 1 1 0 0 0 67 36 z M 46 39 A 1 1 0 0 0 46 41 A 1 1 0 0 0 46 39 z M 52 39 A 1 1 0 0 0 52 41 A 1 1 0 0 0 52 39 z M 58 39 A 1 1 0 0 0 58 41 A 1 1 0 0 0 58 39 z M 64 39 A 1 1 0 0 0 64 41 A 1 1 0 0 0 64 39 z M 13 42 A 1 1 0 0 0 13 44 A 1 1 0 0 0 13 42 z M 19 42 A 1 1 0 0 0 19 44 A 1 1 0 0 0 19 42 z M 43 42 A 1 1 0 0 0 43 44 A 1 1 0 0 0 43 42 z M 49 42 A 1 1 0 0 0 49 44 A 1 1 0 0 0 49 42 z M 55 42 A 1 1 0 0 0 55 44 A 1 1 0 0 0 55 42 z M 61 42 A 1 1 0 0 0 61 44 A 1 1 0 0 0 61 42 z M 67 42 A 1 1 0 0 0 67 44 A 1 1 0 0 0 67 42 z M 16 45 A 1 1 0 0 0 16 47 A 1 1 0 0 0 16 45 z M 22 45 A 1 1 0 0 0 22 47 A 1 1 0 0 0 22 45 z M 46 45 A 1 1 0 0 0 46 47 A 1 1 0 0 0 46 45 z M 52 45 A 1 1 0 0 0 52 47 A 1 1 0 0 0 52 45 z M 58 45 A 1 1 0 0 0 58 47 A 1 1 0 0 0 58 45 z M 64 45 A 1 1 0 0 0 64 47 A 1 1 0 0 0 64 45 z M 19 48 A 1 1 0 0 0 19 50 A 1 1 0 0 0 19 48 z M 25 48 A 1 1 0 0 0 25 50 A 1 1 0 0 0 25 48 z M 55 48 A 1 1 0 0 0 55 50 A 1 1 0 0 0 55 48 z M 61 48 A 1 1 0 0 0 61 50 A 1 1 0 0 0 61 48 z M 67 48 A 1 1 0 0 0 67 50 A 1 1 0 0 0 67 48 z M 16 51 A 1 1 0 0 0 16 53 A 1 1 0 0 0 16 51 z M 22 51 A 1 1 0 0 0 22 53 A 1 1 0 0 0 22 51 z M 28 51 A 1 1 0 0 0 28 53 A 1 1 0 0 0 28 51 z M 58 51 A 1 1 0 0 0 58 53 A 1 1 0 0 0 58 51 z M 64 51 A 1 1 0 0 0 64 53 A 1 1 0 0 0 64 51 z M 19 54 A 1 1 0 0 0 19 56 A 1 1 0 0 0 19 54 z M 25 54 A 1 1 0 0 0 25 56 A 1 1 0 0 0 25 54 z M 55 54 A 1 1 0 0 0 55 56 A 1 1 0 0 0 55 54 z M 61 54 A 1 1 0 0 0 61 56 A 1 1 0 0 0 61 54 z M 22 57 A 1 1 0 0 0 22 59 A 1 1 0 0 0 22 57 z M 28 57 A 1 1 0 0 0 28 59 A 1 1 0 0 0 28 57 z M 58 57 A 1 1 0 0 0 58 59 A 1 1 0 0 0 58 57 z M 25 60 A 1 1 0 0 0 25 62 A 1 1 0 0 0 25 60 z M 31 60 A 1 1 0 0 0 31 62 A 1 1 0 0 0 31 60 z M 55 60 A 1 1 0 0 0 55 62 A 1 1 0 0 0 55 60 z M 61 60 A 1 1 0 0 0 61 62 A 1 1 0 0 0 61 60 z M 28 63 A 1 1 0 0 0 28 65 A 1 1 0 0 0 28 63 z M 34 63 A 1 1 0 0 0 34 65 A 1 1 0 0 0 34 63 z M 52 63 A 1 1 0 0 0 52 65 A 1 1 0 0 0 52 63 z M 31 66 A 1 1 0 0 0 31 68 A 1 1 0 0 0 31 66 z M 37 66 A 1 1 0 0 0 37 68 A 1 1 0 0 0 37 66 z" fill="#ffffff"/></svg>
