<?xml version="1.0" encoding="utf-8"?>
<svg xmlns="http://www.w3.org/2000/svg" viewBox="0 0 24 24" fill="#ffffff"><path d="M 4 3 C 2.897 3 2 3.897 2 5 L 2 19 C 2 20.103 2.897 21 4 21 L 12 21 L 12 20 L 12 19 L 12 14.144531 C 12 12.410531 13.400094 11 15.121094 11 C 15.649094 11 16.174672 11.137437 16.638672 11.398438 L 20.832031 13.753906 L 22 14.408203 L 22 5 C 22 3.897 21.103 3 20 3 L 4 3 z M 4.0019531 5 L 6 5 L 6 7 L 4.0019531 7 L 4.0019531 5 z M 18 5 L 20 5 L 20 7 L 18 7 L 18 5 z M 4 9 L 6 9 L 6 11 L 4 11 L 4 9 z M 18 9 L 20 9 L 20 11 L 18 11 L 18 9 z M 4 13 L 6 13 L 6 15 L 4 15 L 4 13 z M 15.085938 13 C 14.514437 13.018984 14 13.492031 14 14.144531 L 14 22.855469 C 14 23.725469 14.912203 24.276422 15.658203 23.857422 L 23.419922 19.501953 C 24.193922 19.066953 24.193922 17.932047 23.419922 17.498047 L 15.658203 13.142578 C 15.471703 13.037828 15.276438 12.993672 15.085938 13 z M 4 17 L 6 17 L 6 19 L 4 19 L 4 17 z" fill="#ffffff"/></svg>
