<svg xmlns="http://www.w3.org/2000/svg" viewBox="120 -220 200 850" style="enable-background:new -153 -46 652 652;" xmlSpace="preserve">
<path class="st0" d="M201.9,199.2c14.9-28.6,59.4-100.2,132-110.5c6.3-0.8,12.6-1.3,19-1.3c65.3,0,118.1,50.3,118.1,111.8
	c0,61.7-53.1,111.8-118.1,111.8c-6.3,0-12.6-0.5-19-1.3C261.4,299.4,216.8,227.8,201.9,199.2 M1.9,309.8c-6.3,1-12.6,1.3-19,1.3
	c-65.3,0-118.1-50.3-118.1-111.8c0-61.7,53.1-111.8,118.4-111.8c6.3,0,12.6,0.5,19,1.3c72.6,10.4,116.8,82,132,110.5
	C118.7,228.1,74.2,299.4,1.9,309.8 M532.5,199.2c0-95.6-80.7-173.2-179.6-173.2c-9.1,0-18.5,0.5-27.6,2
	C248.5,38.9,196.9,94.3,168,136.8C139.2,94.3,87.6,38.9,10.7,28c-9.1-1.3-18.5-2-27.6-2c-99.1,0-179.6,77.6-179.6,173.2
	c0,95.6,80.7,173.2,179.6,173.2c9.1,0,18.5-0.5,27.8-2c76.9-11.1,128.5-66.5,157.3-109c28.8,42.5,80.4,97.9,157.3,109
	c9.1,1.3,18.5,2,27.8,2C451.8,372.5,532.5,294.8,532.5,199.2 M513.7,55.3c2.3,0,3.5-0.7,3.5-3.3c0-2.3-0.8-3-3.5-3h-2.5v6.6
	L513.7,55.3z M506.4,45.5h7.8c6.1,0,8.3,2.5,8.3,6.8c0,2.8-1.3,4.8-3.8,5.8l3.8,7.6H517l-2.8-6.8h-2.8v6.8h-5.1V45.5z M527.2,55.6
	c0-7.3-5.6-13.6-13.2-13.6c-7.6,0-12.9,5.6-12.9,13.6c0,8.4,6.1,13.7,12.9,13.7C521.6,69.2,527.2,63.9,527.2,55.6 M498.3,55.6
	c0-8.9,7.1-16.2,15.7-16.2c8.8,0,15.9,7.3,15.9,16.2c0,9.4-7.1,16.2-15.9,16.2C505.4,71.8,498.3,64.4,498.3,55.6 M470,505.8
	c-14.4,0-15.7-10.1-15.7-30.3c0-24.5,2.3-32.4,15.7-32.4c14.7,0,16.7,6.8,16.7,31.4C486.4,497.4,484.4,505.8,470,505.8 M470,422.8
	c-30.3,0-42,22.3-42,52.6c0,33.1,13.2,50.6,42.2,50.6c32.4,0,43-22.8,43-51.6C513,436,498.3,422.8,470,422.8 M388.3,484.3
	l-32.6-60.2h-27.1v100.4h23.5l-0.3-64.2l34.4,64.2h25V424.1h-23V484.3z M231.3,444.6H257v59.2h-25.8v20.7h76.9v-20.7h-26v-59.2h26
	v-20.5h-76.9V444.6z M185.2,485.3c0,15.2-4.3,20.2-15.4,20.2c-9.4,0-15.2-3.8-15.2-20.5v-61.2h-24.8v65.8c0,30.3,22,36.2,39,36.2
	c17.7,0,40.5-6.3,40.5-35.9v-66h-23.8L185.2,485.3z M63.1,503.7h-9.4v-59.4H61c22.3,0,24.3,10.4,24.3,30.1
	C85.1,491.3,83.6,503.7,63.1,503.7 M61.6,424.1H28.7v100.4h32.9c42.5,0,49.8-27.3,49.8-51.1C111.6,441.8,99.2,424.1,61.6,424.1
	 M-32,472.6h-13.1v-28.3h12.6c11.6,0,14.7,4.5,14.7,13.4C-17.9,468.8-23.4,472.6-32,472.6 M8.7,457.5c0-19.2-10.4-33.6-38.2-33.6
	H-70v100.4h24.8v-31.9h12.6l15.2,31.9H12l-19.5-36.7C3.1,481.7,8.7,471.4,8.7,457.5 M-142,484.5l9.1-36.7l9.9,36.7H-142z
	 M-145.8,424.1l-31.4,100.4h25.3l5.1-20.5h28.8l5.6,20.5h26.3L-118,424.1H-145.8z M364.8,217.2h36.4v-34.9h-36.4v-36.4h-34.9v36.4
	h-36.4v34.9h36.4v36.4h34.9V217.2z M-66.7,182.3h108v34.7h-108V182.3z"/>
</svg>
