<?xml version="1.0" encoding="utf-8"?>
<!-- Generator: Adobe Illustrator 24.2.1, SVG Export Plug-In . SVG Version: 6.00 Build 0)  -->
<svg version="1.1" id="Layer_1" xmlns="http://www.w3.org/2000/svg" xmlns:xlink="http://www.w3.org/1999/xlink" x="0px" y="0px"
	 viewBox="0 0 128 128" style="enable-background:new 0 0 128 128;" xml:space="preserve">
<style type="text/css">
	.st0{fill:#EB6326;}
</style>
<g>
	<g>
		<path class="st0" d="M37,49.6h16l-2.5,9.5c-0.4,1.3-1.1,2.4-2.1,3.2c-1,0.8-2.2,1.2-3.6,1.2h-7.4c-1.7,0-3.2,0.5-4.5,1.5
			c-1.3,1-2.2,2.3-2.7,4c-0.3,1.3-0.4,2.5-0.1,3.6c0.3,1.1,0.7,2.1,1.4,3c0.7,0.9,1.5,1.6,2.6,2.1c1,0.5,2.2,0.8,3.4,0.8h4.5
			c0.9,0,1.5,0.3,2.1,1c0.5,0.7,0.7,1.5,0.5,2.3l-2.8,10.5h-5c-3.4,0-6.5-0.7-9.4-2.2c-2.9-1.5-5.2-3.5-7.1-5.9
			c-1.9-2.5-3.2-5.3-3.9-8.4c-0.7-3.1-0.6-6.4,0.2-9.7l0.3-1.1c0.6-2.3,1.6-4.4,2.9-6.3c1.3-1.9,2.8-3.5,4.6-4.9
			c1.8-1.3,3.7-2.4,5.9-3.2C32.4,50,34.7,49.6,37,49.6z"/>
		<path class="st0" d="M45.1,92.4l14-52.3c0.4-1.3,1.1-2.4,2.1-3.2c1-0.8,2.2-1.2,3.6-1.2h14.8c3.4,0,6.5,0.7,9.4,2.2
			c2.9,1.5,5.2,3.5,7.1,5.9c1.9,2.5,3.2,5.3,3.9,8.4c0.7,3.1,0.6,6.4-0.3,9.7l-0.3,1.1c-0.6,2.3-1.6,4.4-2.8,6.3
			c-1.3,1.9-2.8,3.6-4.6,4.9c-1.8,1.4-3.7,2.4-5.9,3.2c-2.2,0.8-4.4,1.1-6.8,1.1H66.5l2.6-9.6c0.4-1.3,1.1-2.3,2.1-3.1
			c1-0.8,2.2-1.2,3.6-1.2h4.1c1.7,0,3.2-0.5,4.6-1.6c1.3-1,2.2-2.4,2.7-4c0.3-1.2,0.4-2.3,0.1-3.5c-0.3-1.1-0.7-2.1-1.4-3
			c-0.7-0.9-1.5-1.6-2.6-2.1c-1-0.5-2.2-0.8-3.4-0.8H71L60.6,88c-0.4,1.3-1.1,2.3-2.1,3.1c-1,0.8-2.2,1.2-3.5,1.2H45.1z"/>
	</g>
	<g>
		<path class="st0" d="M101.2,43.3h-0.9v-6.8h-2.4v-0.8h5.7v0.8h-2.4V43.3z"/>
		<path class="st0" d="M108.1,43.3l-2.6-6.7h0c0,0.5,0.1,1.2,0.1,1.9v4.8h-0.8v-7.5h1.3l2.4,6.2h0l2.4-6.2h1.3v7.5h-0.9v-4.9
			c0-0.6,0-1.2,0.1-1.8h0l-2.6,6.7H108.1z"/>
	</g>
</g>
</svg>
